# xmcd CD database file
#
# Track frame offsets:
#	187
#	20455
#	40357
#	60295
#	77232
#	91385
#	109712
#	126895
#	145965
#	161055
#	177097
#	194977
#
# Disc length: 2803 seconds
#
# Revision: 3
# Processed by: cddbd v1.5.2PL0 Copyright (c) Steve Scherf et al.
# Submitted via: CDex 1.70beta2
#
DISCID=a50af10c
DTITLE=Carpenters - Lovelines
DYEAR=1989
DGENRE=Pop
TTITLE0=Lovelines
TTITLE1=Where Do I Go From Here
TTITLE2=The Uninvited Guest
TTITLE3=If We Try
TTITLE4=When I Fall In Love
TTITLE5=Kiss Me The Way You Did Last Night
TTITLE6=Remember When Lovin' Took All Night
TTITLE7=You're The One
TTITLE8=Honolulu City Lights
TTITLE9=Slow Dance
TTITLE10=If I Had You
TTITLE11=Little Girl Blue
EXTD=YEAR: 1989
EXTT0=
EXTT1=
EXTT2=
EXTT3=
EXTT4=
EXTT5=
EXTT6=
EXTT7=
EXTT8=
EXTT9=
EXTT10=
EXTT11=
PLAYORDER=
